<?xml version="1.0" encoding="utf-8"?>
<svg viewBox="0 0 512 512" version="1.1" xmlns="http://www.w3.org/2000/svg">
  <circle r="1e5" fill="#f9f9f9"/>
  <path d="M 187.466 240.42 Q 186.266 243.42 183.341 244.62 Q 180.416 245.82 177.491 244.62 Q 174.566 243.42 173.366 240.495 Q 172.166 237.57 173.366 234.72 Q 176.366 227.37 181.241 212.37 Q 186.116 197.37 188.216 192.12 Q 189.266 189.12 196.766 170.82 Q 203.816 152.82 207.716 141.57 Q 208.766 138.57 211.541 137.145 Q 214.316 135.72 217.316 136.77 Q 218.666 137.22 219.716 138.12 Q 222.716 139.17 223.916 142.17 L 261.266 234.42 Q 262.466 237.42 261.266 240.345 Q 260.066 243.27 257.141 244.47 Q 254.216 245.67 251.291 244.47 Q 248.366 243.27 247.166 240.42 L 235.916 211.32 Q 229.766 211.62 229.016 211.62 Q 208.766 212.37 197.216 212.37 Q 190.466 232.17 187.466 240.42 Z M 202.766 197.07 Q 215.366 196.92 229.766 196.47 L 216.116 163.47 L 202.766 197.07 Z" transform="matrix(3.312007, 0, 0, 2.797779, -565.125916, -282.040833)" style="fill: rgb(255, 149, 62); stroke: rgb(0, 0, 0); stroke-width: 0.654687px; white-space: pre;"/>
  <path style="stroke: rgb(255, 0, 0); stroke-width: 0px; fill: rgb(236, 0, 0);" d="M 270.627 241.76 C 208.246 153.084 281.835 49.601 369.133 173.698 C 442.302 52.665 527.324 148.106 471.611 240.269 L 371.288 374.129 L 270.627 241.76 Z"/>
</svg>
